<mxfile host="app.diagrams.net" modified="2022-10-14T02:28:32.019Z" agent="5.0 (Windows NT 10.0; Win64; x64) AppleWebKit/537.36 (KHTML, like Gecko) Chrome/106.0.0.0 Safari/537.36" etag="H9H23QmGOjRQjJhXlN91" version="20.4.0" type="github">
  <diagram id="s6t1BiSnBLybFyzT1I-E" name="Page-1">
    <mxGraphModel dx="1422" dy="754" grid="0" gridSize="10" guides="0" tooltips="1" connect="1" arrows="1" fold="1" page="1" pageScale="1" pageWidth="827" pageHeight="1169" math="0" shadow="0">
      <root>
        <mxCell id="0" />
        <mxCell id="1" parent="0" />
        <mxCell id="uwPRUye7MMwisOPvKxMe-19" value="Dictionary (Local Cache)" style="rounded=0;whiteSpace=wrap;html=1;shadow=1;fontFamily=Comic Sans MS;verticalAlign=top;fontSize=14;" vertex="1" parent="1">
          <mxGeometry x="270" y="600" width="680" height="330" as="geometry" />
        </mxCell>
        <mxCell id="tbmGMHJyIX_YE8kALXTF-17" value="Get raw message transform to vlidated message and send out message with sessionId(0-9)" style="rounded=1;whiteSpace=wrap;html=1;shadow=0;fontFamily=Comic Sans MS;dashed=1;align=center;strokeWidth=2;fillColor=#dae8fc;strokeColor=#6c8ebf;" parent="1" vertex="1">
          <mxGeometry x="150" y="250" width="190" height="60" as="geometry" />
        </mxCell>
        <mxCell id="tbmGMHJyIX_YE8kALXTF-8" style="edgeStyle=orthogonalEdgeStyle;rounded=0;orthogonalLoop=1;jettySize=auto;html=1;exitX=1;exitY=0.5;exitDx=0;exitDy=0;entryX=0;entryY=0.5;entryDx=0;entryDy=0;sketch=1;shadow=1;fontFamily=Comic Sans MS;" parent="1" source="tbmGMHJyIX_YE8kALXTF-1" target="tbmGMHJyIX_YE8kALXTF-2" edge="1">
          <mxGeometry relative="1" as="geometry" />
        </mxCell>
        <mxCell id="tbmGMHJyIX_YE8kALXTF-1" value="Apollo &lt;br&gt;Raw Message Queue" style="rounded=0;whiteSpace=wrap;html=1;sketch=1;shadow=1;fontFamily=Comic Sans MS;" parent="1" vertex="1">
          <mxGeometry x="40" y="140" width="150" height="50" as="geometry" />
        </mxCell>
        <mxCell id="tbmGMHJyIX_YE8kALXTF-10" style="edgeStyle=orthogonalEdgeStyle;rounded=0;orthogonalLoop=1;jettySize=auto;html=1;exitX=1;exitY=0.5;exitDx=0;exitDy=0;sketch=1;shadow=1;fontFamily=Comic Sans MS;" parent="1" source="tbmGMHJyIX_YE8kALXTF-2" edge="1">
          <mxGeometry relative="1" as="geometry">
            <mxPoint x="600" y="165" as="targetPoint" />
          </mxGeometry>
        </mxCell>
        <mxCell id="tbmGMHJyIX_YE8kALXTF-2" value="Apollo &lt;br&gt;Validated Message Queue" style="rounded=0;whiteSpace=wrap;html=1;sketch=1;shadow=1;fontFamily=Comic Sans MS;" parent="1" vertex="1">
          <mxGeometry x="310" y="140" width="150" height="50" as="geometry" />
        </mxCell>
        <mxCell id="tbmGMHJyIX_YE8kALXTF-3" value="Reciever for P0" style="rounded=0;whiteSpace=wrap;html=1;sketch=1;shadow=1;fontFamily=Comic Sans MS;" parent="1" vertex="1">
          <mxGeometry x="630" y="120" width="120" height="40" as="geometry" />
        </mxCell>
        <mxCell id="tbmGMHJyIX_YE8kALXTF-20" style="edgeStyle=orthogonalEdgeStyle;rounded=0;sketch=1;orthogonalLoop=1;jettySize=auto;html=1;exitX=1;exitY=0.75;exitDx=0;exitDy=0;shadow=1;fontFamily=Comic Sans MS;startArrow=none;startFill=0;endArrow=classic;endFill=0;" parent="1" source="tbmGMHJyIX_YE8kALXTF-4" edge="1">
          <mxGeometry relative="1" as="geometry">
            <mxPoint x="980" y="170" as="targetPoint" />
          </mxGeometry>
        </mxCell>
        <mxCell id="tbmGMHJyIX_YE8kALXTF-4" value="Reciever for P2" style="rounded=0;whiteSpace=wrap;html=1;sketch=1;shadow=1;fontFamily=Comic Sans MS;" parent="1" vertex="1">
          <mxGeometry x="620" y="140" width="120" height="40" as="geometry" />
        </mxCell>
        <mxCell id="tbmGMHJyIX_YE8kALXTF-6" value="Reciever for P8" style="rounded=0;whiteSpace=wrap;html=1;sketch=1;shadow=1;fontFamily=Comic Sans MS;" parent="1" vertex="1">
          <mxGeometry x="610" y="160" width="120" height="40" as="geometry" />
        </mxCell>
        <mxCell id="tbmGMHJyIX_YE8kALXTF-12" style="edgeStyle=orthogonalEdgeStyle;rounded=0;sketch=1;orthogonalLoop=1;jettySize=auto;html=1;exitX=0.25;exitY=1;exitDx=0;exitDy=0;entryX=0.188;entryY=0.075;entryDx=0;entryDy=0;entryPerimeter=0;shadow=1;fontFamily=Comic Sans MS;" parent="1" source="tbmGMHJyIX_YE8kALXTF-7" target="tbmGMHJyIX_YE8kALXTF-11" edge="1">
          <mxGeometry relative="1" as="geometry" />
        </mxCell>
        <mxCell id="tbmGMHJyIX_YE8kALXTF-7" value="Reciever for P9" style="rounded=0;whiteSpace=wrap;html=1;sketch=1;shadow=1;fontFamily=Comic Sans MS;" parent="1" vertex="1">
          <mxGeometry x="600" y="180" width="120" height="40" as="geometry" />
        </mxCell>
        <mxCell id="tbmGMHJyIX_YE8kALXTF-13" style="edgeStyle=orthogonalEdgeStyle;rounded=0;sketch=1;orthogonalLoop=1;jettySize=auto;html=1;exitX=0.75;exitY=0;exitDx=0;exitDy=0;entryX=1;entryY=1;entryDx=0;entryDy=0;shadow=1;fontFamily=Comic Sans MS;" parent="1" source="tbmGMHJyIX_YE8kALXTF-11" target="tbmGMHJyIX_YE8kALXTF-7" edge="1">
          <mxGeometry relative="1" as="geometry" />
        </mxCell>
        <mxCell id="tbmGMHJyIX_YE8kALXTF-11" value="Local Cache" style="rounded=0;whiteSpace=wrap;html=1;shadow=1;sketch=1;fontFamily=Comic Sans MS;" parent="1" vertex="1">
          <mxGeometry x="600" y="300" width="160" height="40" as="geometry" />
        </mxCell>
        <mxCell id="tbmGMHJyIX_YE8kALXTF-15" value="" style="endArrow=oval;html=1;rounded=0;shadow=0;sketch=1;entryX=0;entryY=0;entryDx=80;entryDy=0;entryPerimeter=0;endFill=1;startArrow=oval;startFill=1;dashed=1;fontFamily=Comic Sans MS;" parent="1" edge="1">
          <mxGeometry width="50" height="50" relative="1" as="geometry">
            <mxPoint x="240" y="170" as="sourcePoint" />
            <mxPoint x="240" y="250" as="targetPoint" />
          </mxGeometry>
        </mxCell>
        <mxCell id="tbmGMHJyIX_YE8kALXTF-18" value="Get new validated message and then check for the message ordering before send it out" style="rounded=1;whiteSpace=wrap;html=1;shadow=0;fontFamily=Comic Sans MS;dashed=1;align=center;strokeWidth=2;fillColor=#dae8fc;strokeColor=#6c8ebf;" parent="1" vertex="1">
          <mxGeometry x="440" y="20" width="190" height="60" as="geometry" />
        </mxCell>
        <mxCell id="tbmGMHJyIX_YE8kALXTF-19" value="" style="endArrow=oval;html=1;rounded=0;shadow=0;sketch=1;entryX=0;entryY=0;entryDx=80;entryDy=0;entryPerimeter=0;endFill=1;startArrow=oval;startFill=1;dashed=1;fontFamily=Comic Sans MS;" parent="1" edge="1">
          <mxGeometry width="50" height="50" relative="1" as="geometry">
            <mxPoint x="534.5" y="80" as="sourcePoint" />
            <mxPoint x="534.5" y="160" as="targetPoint" />
          </mxGeometry>
        </mxCell>
        <mxCell id="tbmGMHJyIX_YE8kALXTF-21" value="There are two case : (1) send out new message only; (2) send out new message and other message after it." style="rounded=1;whiteSpace=wrap;html=1;shadow=0;fontFamily=Comic Sans MS;dashed=1;align=center;strokeWidth=2;fillColor=#dae8fc;strokeColor=#6c8ebf;" parent="1" vertex="1">
          <mxGeometry x="770" y="20" width="210" height="60" as="geometry" />
        </mxCell>
        <mxCell id="tbmGMHJyIX_YE8kALXTF-22" value="" style="endArrow=oval;html=1;rounded=0;shadow=0;sketch=1;endFill=1;startArrow=oval;startFill=1;dashed=1;fontFamily=Comic Sans MS;" parent="1" edge="1">
          <mxGeometry width="50" height="50" relative="1" as="geometry">
            <mxPoint x="860" y="80" as="sourcePoint" />
            <mxPoint x="860" y="170" as="targetPoint" />
          </mxGeometry>
        </mxCell>
        <mxCell id="tbmGMHJyIX_YE8kALXTF-23" value="P0 -&amp;gt; Message Queue&lt;br&gt;P1 -&amp;gt; Message Queue&lt;br&gt;.....&lt;br&gt;P9 -&amp;gt; Message Queue" style="rounded=1;whiteSpace=wrap;html=1;shadow=0;fontFamily=Comic Sans MS;dashed=1;align=center;strokeWidth=2;fillColor=#dae8fc;strokeColor=#6c8ebf;" parent="1" vertex="1">
          <mxGeometry x="830" y="280" width="210" height="100" as="geometry" />
        </mxCell>
        <mxCell id="tbmGMHJyIX_YE8kALXTF-24" value="" style="endArrow=oval;startArrow=oval;html=1;rounded=0;shadow=0;sketch=1;fontFamily=Comic Sans MS;exitX=1;exitY=0.75;exitDx=0;exitDy=0;entryX=0;entryY=0.5;entryDx=0;entryDy=0;startFill=1;endFill=1;dashed=1;" parent="1" source="tbmGMHJyIX_YE8kALXTF-11" target="tbmGMHJyIX_YE8kALXTF-23" edge="1">
          <mxGeometry width="50" height="50" relative="1" as="geometry">
            <mxPoint x="800" y="430" as="sourcePoint" />
            <mxPoint x="850" y="380" as="targetPoint" />
          </mxGeometry>
        </mxCell>
        <mxCell id="uwPRUye7MMwisOPvKxMe-8" style="edgeStyle=orthogonalEdgeStyle;rounded=0;orthogonalLoop=1;jettySize=auto;html=1;exitX=1;exitY=0.5;exitDx=0;exitDy=0;entryX=0;entryY=0.5;entryDx=0;entryDy=0;sketch=1;shadow=1;fontFamily=Comic Sans MS;" edge="1" parent="1" source="uwPRUye7MMwisOPvKxMe-1" target="uwPRUye7MMwisOPvKxMe-5">
          <mxGeometry relative="1" as="geometry" />
        </mxCell>
        <mxCell id="uwPRUye7MMwisOPvKxMe-1" value="P0" style="rounded=0;whiteSpace=wrap;html=1;sketch=1;shadow=1;fontFamily=Comic Sans MS;" vertex="1" parent="1">
          <mxGeometry x="320" y="660" width="90" height="40" as="geometry" />
        </mxCell>
        <mxCell id="uwPRUye7MMwisOPvKxMe-14" style="edgeStyle=orthogonalEdgeStyle;rounded=0;orthogonalLoop=1;jettySize=auto;html=1;exitX=1;exitY=0.5;exitDx=0;exitDy=0;entryX=0;entryY=0.5;entryDx=0;entryDy=0;sketch=1;shadow=1;fontFamily=Comic Sans MS;" edge="1" parent="1" source="uwPRUye7MMwisOPvKxMe-2" target="uwPRUye7MMwisOPvKxMe-9">
          <mxGeometry relative="1" as="geometry" />
        </mxCell>
        <mxCell id="uwPRUye7MMwisOPvKxMe-2" value="P1" style="rounded=0;whiteSpace=wrap;html=1;sketch=1;shadow=1;fontFamily=Comic Sans MS;" vertex="1" parent="1">
          <mxGeometry x="320" y="740" width="90" height="40" as="geometry" />
        </mxCell>
        <mxCell id="uwPRUye7MMwisOPvKxMe-15" style="edgeStyle=orthogonalEdgeStyle;rounded=0;orthogonalLoop=1;jettySize=auto;html=1;exitX=1;exitY=0.5;exitDx=0;exitDy=0;entryX=0;entryY=0.5;entryDx=0;entryDy=0;sketch=1;shadow=1;fontFamily=Comic Sans MS;" edge="1" parent="1" source="uwPRUye7MMwisOPvKxMe-3" target="uwPRUye7MMwisOPvKxMe-11">
          <mxGeometry relative="1" as="geometry" />
        </mxCell>
        <mxCell id="uwPRUye7MMwisOPvKxMe-3" value="P9" style="rounded=0;whiteSpace=wrap;html=1;sketch=1;shadow=1;fontFamily=Comic Sans MS;" vertex="1" parent="1">
          <mxGeometry x="320" y="860" width="90" height="40" as="geometry" />
        </mxCell>
        <mxCell id="uwPRUye7MMwisOPvKxMe-5" value="" style="rounded=0;whiteSpace=wrap;html=1;sketch=1;shadow=1;fontFamily=Comic Sans MS;" vertex="1" parent="1">
          <mxGeometry x="520" y="660" width="380" height="40" as="geometry" />
        </mxCell>
        <mxCell id="uwPRUye7MMwisOPvKxMe-7" value="Msg1" style="rounded=0;whiteSpace=wrap;html=1;sketch=1;shadow=1;fontFamily=Comic Sans MS;" vertex="1" parent="1">
          <mxGeometry x="530" y="667.5" width="50" height="25" as="geometry" />
        </mxCell>
        <mxCell id="uwPRUye7MMwisOPvKxMe-9" value="" style="rounded=0;whiteSpace=wrap;html=1;sketch=1;shadow=1;fontFamily=Comic Sans MS;" vertex="1" parent="1">
          <mxGeometry x="520" y="740" width="380" height="40" as="geometry" />
        </mxCell>
        <mxCell id="uwPRUye7MMwisOPvKxMe-11" value="" style="rounded=0;whiteSpace=wrap;html=1;sketch=1;shadow=1;fontFamily=Comic Sans MS;" vertex="1" parent="1">
          <mxGeometry x="520" y="860" width="380" height="40" as="geometry" />
        </mxCell>
        <mxCell id="uwPRUye7MMwisOPvKxMe-12" value="Msg1" style="rounded=0;whiteSpace=wrap;html=1;sketch=1;shadow=1;fontFamily=Comic Sans MS;" vertex="1" parent="1">
          <mxGeometry x="530" y="867.5" width="50" height="25" as="geometry" />
        </mxCell>
        <mxCell id="uwPRUye7MMwisOPvKxMe-16" value="Msg2" style="rounded=0;whiteSpace=wrap;html=1;sketch=1;shadow=1;fontFamily=Comic Sans MS;" vertex="1" parent="1">
          <mxGeometry x="600" y="867.5" width="50" height="25" as="geometry" />
        </mxCell>
        <mxCell id="uwPRUye7MMwisOPvKxMe-17" value="Msg3" style="rounded=0;whiteSpace=wrap;html=1;sketch=1;shadow=1;fontFamily=Comic Sans MS;" vertex="1" parent="1">
          <mxGeometry x="670" y="867.5" width="50" height="25" as="geometry" />
        </mxCell>
        <mxCell id="uwPRUye7MMwisOPvKxMe-22" style="edgeStyle=orthogonalEdgeStyle;rounded=0;sketch=1;orthogonalLoop=1;jettySize=auto;html=1;exitX=0;exitY=0.5;exitDx=0;exitDy=0;shadow=1;dashed=1;fontFamily=Comic Sans MS;fontSize=14;" edge="1" parent="1" source="uwPRUye7MMwisOPvKxMe-20" target="uwPRUye7MMwisOPvKxMe-5">
          <mxGeometry relative="1" as="geometry" />
        </mxCell>
        <mxCell id="uwPRUye7MMwisOPvKxMe-20" value="Msg2" style="rounded=0;whiteSpace=wrap;html=1;sketch=1;shadow=1;fontFamily=Comic Sans MS;" vertex="1" parent="1">
          <mxGeometry x="1000" y="667.5" width="50" height="25" as="geometry" />
        </mxCell>
        <mxCell id="uwPRUye7MMwisOPvKxMe-23" value="..." style="text;html=1;strokeColor=none;fillColor=none;align=center;verticalAlign=middle;whiteSpace=wrap;rounded=0;shadow=1;dashed=1;fontFamily=Comic Sans MS;fontSize=16;horizontal=0;" vertex="1" parent="1">
          <mxGeometry x="320" y="810" width="60" height="30" as="geometry" />
        </mxCell>
        <mxCell id="uwPRUye7MMwisOPvKxMe-24" value="Dictionary (Local Cache)" style="rounded=0;whiteSpace=wrap;html=1;shadow=1;fontFamily=Comic Sans MS;verticalAlign=top;fontSize=14;" vertex="1" parent="1">
          <mxGeometry x="261" y="982" width="680" height="330" as="geometry" />
        </mxCell>
        <mxCell id="uwPRUye7MMwisOPvKxMe-25" style="edgeStyle=orthogonalEdgeStyle;rounded=0;orthogonalLoop=1;jettySize=auto;html=1;exitX=1;exitY=0.5;exitDx=0;exitDy=0;entryX=0;entryY=0.5;entryDx=0;entryDy=0;sketch=1;shadow=1;fontFamily=Comic Sans MS;" edge="1" parent="1" source="uwPRUye7MMwisOPvKxMe-26" target="uwPRUye7MMwisOPvKxMe-31">
          <mxGeometry relative="1" as="geometry" />
        </mxCell>
        <mxCell id="uwPRUye7MMwisOPvKxMe-26" value="P0" style="rounded=0;whiteSpace=wrap;html=1;sketch=1;shadow=1;fontFamily=Comic Sans MS;" vertex="1" parent="1">
          <mxGeometry x="311" y="1042" width="90" height="40" as="geometry" />
        </mxCell>
        <mxCell id="uwPRUye7MMwisOPvKxMe-27" style="edgeStyle=orthogonalEdgeStyle;rounded=0;orthogonalLoop=1;jettySize=auto;html=1;exitX=1;exitY=0.5;exitDx=0;exitDy=0;entryX=0;entryY=0.5;entryDx=0;entryDy=0;sketch=1;shadow=1;fontFamily=Comic Sans MS;" edge="1" parent="1" source="uwPRUye7MMwisOPvKxMe-28" target="uwPRUye7MMwisOPvKxMe-33">
          <mxGeometry relative="1" as="geometry" />
        </mxCell>
        <mxCell id="uwPRUye7MMwisOPvKxMe-28" value="P1" style="rounded=0;whiteSpace=wrap;html=1;sketch=1;shadow=1;fontFamily=Comic Sans MS;" vertex="1" parent="1">
          <mxGeometry x="311" y="1122" width="90" height="40" as="geometry" />
        </mxCell>
        <mxCell id="uwPRUye7MMwisOPvKxMe-29" style="edgeStyle=orthogonalEdgeStyle;rounded=0;orthogonalLoop=1;jettySize=auto;html=1;exitX=1;exitY=0.5;exitDx=0;exitDy=0;entryX=0;entryY=0.5;entryDx=0;entryDy=0;sketch=1;shadow=1;fontFamily=Comic Sans MS;" edge="1" parent="1" source="uwPRUye7MMwisOPvKxMe-30" target="uwPRUye7MMwisOPvKxMe-34">
          <mxGeometry relative="1" as="geometry" />
        </mxCell>
        <mxCell id="uwPRUye7MMwisOPvKxMe-30" value="P9" style="rounded=0;whiteSpace=wrap;html=1;sketch=1;shadow=1;fontFamily=Comic Sans MS;" vertex="1" parent="1">
          <mxGeometry x="311" y="1242" width="90" height="40" as="geometry" />
        </mxCell>
        <mxCell id="uwPRUye7MMwisOPvKxMe-31" value="" style="rounded=0;whiteSpace=wrap;html=1;sketch=1;shadow=1;fontFamily=Comic Sans MS;" vertex="1" parent="1">
          <mxGeometry x="511" y="1042" width="380" height="40" as="geometry" />
        </mxCell>
        <mxCell id="uwPRUye7MMwisOPvKxMe-42" style="edgeStyle=orthogonalEdgeStyle;rounded=0;sketch=1;orthogonalLoop=1;jettySize=auto;html=1;exitX=0.5;exitY=1;exitDx=0;exitDy=0;entryX=0.5;entryY=1;entryDx=0;entryDy=0;shadow=1;dashed=1;fontFamily=Comic Sans MS;fontSize=16;startArrow=classic;startFill=1;" edge="1" parent="1" source="uwPRUye7MMwisOPvKxMe-32" target="uwPRUye7MMwisOPvKxMe-39">
          <mxGeometry relative="1" as="geometry" />
        </mxCell>
        <mxCell id="uwPRUye7MMwisOPvKxMe-32" value="Msg1" style="rounded=0;whiteSpace=wrap;html=1;sketch=1;shadow=1;fontFamily=Comic Sans MS;" vertex="1" parent="1">
          <mxGeometry x="431" y="1421" width="50" height="25" as="geometry" />
        </mxCell>
        <mxCell id="uwPRUye7MMwisOPvKxMe-33" value="" style="rounded=0;whiteSpace=wrap;html=1;sketch=1;shadow=1;fontFamily=Comic Sans MS;" vertex="1" parent="1">
          <mxGeometry x="511" y="1122" width="380" height="40" as="geometry" />
        </mxCell>
        <mxCell id="uwPRUye7MMwisOPvKxMe-34" value="" style="rounded=0;whiteSpace=wrap;html=1;sketch=1;shadow=1;fontFamily=Comic Sans MS;" vertex="1" parent="1">
          <mxGeometry x="511" y="1242" width="380" height="40" as="geometry" />
        </mxCell>
        <mxCell id="uwPRUye7MMwisOPvKxMe-35" value="Msg1" style="rounded=0;whiteSpace=wrap;html=1;sketch=1;shadow=1;fontFamily=Comic Sans MS;" vertex="1" parent="1">
          <mxGeometry x="521" y="1249.5" width="50" height="25" as="geometry" />
        </mxCell>
        <mxCell id="uwPRUye7MMwisOPvKxMe-36" value="Msg2" style="rounded=0;whiteSpace=wrap;html=1;sketch=1;shadow=1;fontFamily=Comic Sans MS;" vertex="1" parent="1">
          <mxGeometry x="591" y="1249.5" width="50" height="25" as="geometry" />
        </mxCell>
        <mxCell id="uwPRUye7MMwisOPvKxMe-37" value="Msg3" style="rounded=0;whiteSpace=wrap;html=1;sketch=1;shadow=1;fontFamily=Comic Sans MS;" vertex="1" parent="1">
          <mxGeometry x="661" y="1249.5" width="50" height="25" as="geometry" />
        </mxCell>
        <mxCell id="uwPRUye7MMwisOPvKxMe-39" value="Msg2" style="rounded=0;whiteSpace=wrap;html=1;sketch=1;shadow=1;fontFamily=Comic Sans MS;" vertex="1" parent="1">
          <mxGeometry x="618" y="1421" width="50" height="25" as="geometry" />
        </mxCell>
        <mxCell id="uwPRUye7MMwisOPvKxMe-40" value="..." style="text;html=1;strokeColor=none;fillColor=none;align=center;verticalAlign=middle;whiteSpace=wrap;rounded=0;shadow=1;dashed=1;fontFamily=Comic Sans MS;fontSize=16;horizontal=0;" vertex="1" parent="1">
          <mxGeometry x="311" y="1192" width="60" height="30" as="geometry" />
        </mxCell>
        <mxCell id="uwPRUye7MMwisOPvKxMe-86" style="edgeStyle=orthogonalEdgeStyle;rounded=0;sketch=1;orthogonalLoop=1;jettySize=auto;html=1;exitX=1;exitY=0.25;exitDx=0;exitDy=0;entryX=0;entryY=0.75;entryDx=0;entryDy=0;shadow=1;fontFamily=Comic Sans MS;fontSize=18;startArrow=none;startFill=0;" edge="1" parent="1" source="uwPRUye7MMwisOPvKxMe-43" target="uwPRUye7MMwisOPvKxMe-84">
          <mxGeometry relative="1" as="geometry" />
        </mxCell>
        <mxCell id="uwPRUye7MMwisOPvKxMe-87" style="edgeStyle=orthogonalEdgeStyle;rounded=0;sketch=1;orthogonalLoop=1;jettySize=auto;html=1;exitX=1;exitY=0.5;exitDx=0;exitDy=0;entryX=0;entryY=0.75;entryDx=0;entryDy=0;shadow=1;fontFamily=Comic Sans MS;fontSize=18;startArrow=none;startFill=0;" edge="1" parent="1" source="uwPRUye7MMwisOPvKxMe-43" target="uwPRUye7MMwisOPvKxMe-85">
          <mxGeometry relative="1" as="geometry" />
        </mxCell>
        <mxCell id="uwPRUye7MMwisOPvKxMe-88" value="YES" style="edgeLabel;html=1;align=center;verticalAlign=middle;resizable=0;points=[];fontSize=18;fontFamily=Comic Sans MS;" vertex="1" connectable="0" parent="uwPRUye7MMwisOPvKxMe-87">
          <mxGeometry x="-0.3717" y="9" relative="1" as="geometry">
            <mxPoint x="-30" y="-29" as="offset" />
          </mxGeometry>
        </mxCell>
        <mxCell id="uwPRUye7MMwisOPvKxMe-89" value="NO" style="edgeLabel;html=1;align=center;verticalAlign=middle;resizable=0;points=[];fontSize=18;fontFamily=Comic Sans MS;" vertex="1" connectable="0" parent="uwPRUye7MMwisOPvKxMe-87">
          <mxGeometry x="-0.2461" y="2" relative="1" as="geometry">
            <mxPoint x="-22" y="16" as="offset" />
          </mxGeometry>
        </mxCell>
        <mxCell id="uwPRUye7MMwisOPvKxMe-43" value="Latency Message ?" style="text;html=1;strokeColor=none;fillColor=none;align=center;verticalAlign=middle;whiteSpace=wrap;rounded=0;shadow=1;dashed=1;fontFamily=Comic Sans MS;fontSize=16;" vertex="1" parent="1">
          <mxGeometry x="702" y="1422" width="182" height="30" as="geometry" />
        </mxCell>
        <mxCell id="uwPRUye7MMwisOPvKxMe-44" value="Msg1" style="rounded=0;whiteSpace=wrap;html=1;sketch=1;shadow=1;fontFamily=Comic Sans MS;" vertex="1" parent="1">
          <mxGeometry x="528" y="1049" width="50" height="25" as="geometry" />
        </mxCell>
        <mxCell id="uwPRUye7MMwisOPvKxMe-46" value="Msg2" style="rounded=0;whiteSpace=wrap;html=1;sketch=1;shadow=1;fontFamily=Comic Sans MS;fillColor=#dae8fc;strokeColor=#6c8ebf;" vertex="1" parent="1">
          <mxGeometry x="600" y="1049" width="50" height="25" as="geometry" />
        </mxCell>
        <mxCell id="uwPRUye7MMwisOPvKxMe-47" value="Dictionary (Local Cache)" style="rounded=0;whiteSpace=wrap;html=1;shadow=1;fontFamily=Comic Sans MS;verticalAlign=top;fontSize=14;" vertex="1" parent="1">
          <mxGeometry x="257" y="1563" width="680" height="330" as="geometry" />
        </mxCell>
        <mxCell id="uwPRUye7MMwisOPvKxMe-48" style="edgeStyle=orthogonalEdgeStyle;rounded=0;orthogonalLoop=1;jettySize=auto;html=1;exitX=1;exitY=0.5;exitDx=0;exitDy=0;entryX=0;entryY=0.5;entryDx=0;entryDy=0;sketch=1;shadow=1;fontFamily=Comic Sans MS;" edge="1" parent="1" source="uwPRUye7MMwisOPvKxMe-49" target="uwPRUye7MMwisOPvKxMe-54">
          <mxGeometry relative="1" as="geometry" />
        </mxCell>
        <mxCell id="uwPRUye7MMwisOPvKxMe-49" value="P0" style="rounded=0;whiteSpace=wrap;html=1;sketch=1;shadow=1;fontFamily=Comic Sans MS;" vertex="1" parent="1">
          <mxGeometry x="307" y="1623" width="90" height="40" as="geometry" />
        </mxCell>
        <mxCell id="uwPRUye7MMwisOPvKxMe-50" style="edgeStyle=orthogonalEdgeStyle;rounded=0;orthogonalLoop=1;jettySize=auto;html=1;exitX=1;exitY=0.5;exitDx=0;exitDy=0;entryX=0;entryY=0.5;entryDx=0;entryDy=0;sketch=1;shadow=1;fontFamily=Comic Sans MS;" edge="1" parent="1" source="uwPRUye7MMwisOPvKxMe-51" target="uwPRUye7MMwisOPvKxMe-55">
          <mxGeometry relative="1" as="geometry" />
        </mxCell>
        <mxCell id="uwPRUye7MMwisOPvKxMe-51" value="P1" style="rounded=0;whiteSpace=wrap;html=1;sketch=1;shadow=1;fontFamily=Comic Sans MS;" vertex="1" parent="1">
          <mxGeometry x="307" y="1703" width="90" height="40" as="geometry" />
        </mxCell>
        <mxCell id="uwPRUye7MMwisOPvKxMe-52" style="edgeStyle=orthogonalEdgeStyle;rounded=0;orthogonalLoop=1;jettySize=auto;html=1;exitX=1;exitY=0.5;exitDx=0;exitDy=0;entryX=0;entryY=0.5;entryDx=0;entryDy=0;sketch=1;shadow=1;fontFamily=Comic Sans MS;" edge="1" parent="1" source="uwPRUye7MMwisOPvKxMe-53" target="uwPRUye7MMwisOPvKxMe-56">
          <mxGeometry relative="1" as="geometry" />
        </mxCell>
        <mxCell id="uwPRUye7MMwisOPvKxMe-53" value="P9" style="rounded=0;whiteSpace=wrap;html=1;sketch=1;shadow=1;fontFamily=Comic Sans MS;" vertex="1" parent="1">
          <mxGeometry x="307" y="1823" width="90" height="40" as="geometry" />
        </mxCell>
        <mxCell id="uwPRUye7MMwisOPvKxMe-54" value="" style="rounded=0;whiteSpace=wrap;html=1;sketch=1;shadow=1;fontFamily=Comic Sans MS;" vertex="1" parent="1">
          <mxGeometry x="507" y="1623" width="380" height="40" as="geometry" />
        </mxCell>
        <mxCell id="uwPRUye7MMwisOPvKxMe-55" value="" style="rounded=0;whiteSpace=wrap;html=1;sketch=1;shadow=1;fontFamily=Comic Sans MS;" vertex="1" parent="1">
          <mxGeometry x="507" y="1703" width="380" height="40" as="geometry" />
        </mxCell>
        <mxCell id="uwPRUye7MMwisOPvKxMe-56" value="" style="rounded=0;whiteSpace=wrap;html=1;sketch=1;shadow=1;fontFamily=Comic Sans MS;" vertex="1" parent="1">
          <mxGeometry x="507" y="1823" width="380" height="40" as="geometry" />
        </mxCell>
        <mxCell id="uwPRUye7MMwisOPvKxMe-57" value="Msg1" style="rounded=0;whiteSpace=wrap;html=1;sketch=1;shadow=1;fontFamily=Comic Sans MS;" vertex="1" parent="1">
          <mxGeometry x="517" y="1830.5" width="50" height="25" as="geometry" />
        </mxCell>
        <mxCell id="uwPRUye7MMwisOPvKxMe-58" value="Msg2" style="rounded=0;whiteSpace=wrap;html=1;sketch=1;shadow=1;fontFamily=Comic Sans MS;" vertex="1" parent="1">
          <mxGeometry x="587" y="1830.5" width="50" height="25" as="geometry" />
        </mxCell>
        <mxCell id="uwPRUye7MMwisOPvKxMe-59" value="Msg3" style="rounded=0;whiteSpace=wrap;html=1;sketch=1;shadow=1;fontFamily=Comic Sans MS;" vertex="1" parent="1">
          <mxGeometry x="657" y="1830.5" width="50" height="25" as="geometry" />
        </mxCell>
        <mxCell id="uwPRUye7MMwisOPvKxMe-60" value="..." style="text;html=1;strokeColor=none;fillColor=none;align=center;verticalAlign=middle;whiteSpace=wrap;rounded=0;shadow=1;dashed=1;fontFamily=Comic Sans MS;fontSize=16;horizontal=0;" vertex="1" parent="1">
          <mxGeometry x="307" y="1773" width="60" height="30" as="geometry" />
        </mxCell>
        <mxCell id="uwPRUye7MMwisOPvKxMe-61" value="Msg1" style="rounded=0;whiteSpace=wrap;html=1;sketch=1;shadow=1;fontFamily=Comic Sans MS;fillColor=#dae8fc;strokeColor=#6c8ebf;" vertex="1" parent="1">
          <mxGeometry x="584" y="1631" width="50" height="25" as="geometry" />
        </mxCell>
        <mxCell id="uwPRUye7MMwisOPvKxMe-62" value="Msg2" style="rounded=0;whiteSpace=wrap;html=1;sketch=1;shadow=1;fontFamily=Comic Sans MS;fillColor=#dae8fc;strokeColor=#6c8ebf;" vertex="1" parent="1">
          <mxGeometry x="520" y="1631" width="50" height="25" as="geometry" />
        </mxCell>
        <mxCell id="uwPRUye7MMwisOPvKxMe-63" value="Dictionary (Local Cache)" style="rounded=0;whiteSpace=wrap;html=1;shadow=1;fontFamily=Comic Sans MS;verticalAlign=top;fontSize=14;" vertex="1" parent="1">
          <mxGeometry x="251" y="1969" width="680" height="330" as="geometry" />
        </mxCell>
        <mxCell id="uwPRUye7MMwisOPvKxMe-64" style="edgeStyle=orthogonalEdgeStyle;rounded=0;orthogonalLoop=1;jettySize=auto;html=1;exitX=1;exitY=0.5;exitDx=0;exitDy=0;entryX=0;entryY=0.5;entryDx=0;entryDy=0;sketch=1;shadow=1;fontFamily=Comic Sans MS;" edge="1" parent="1" source="uwPRUye7MMwisOPvKxMe-65" target="uwPRUye7MMwisOPvKxMe-70">
          <mxGeometry relative="1" as="geometry" />
        </mxCell>
        <mxCell id="uwPRUye7MMwisOPvKxMe-65" value="P0" style="rounded=0;whiteSpace=wrap;html=1;sketch=1;shadow=1;fontFamily=Comic Sans MS;" vertex="1" parent="1">
          <mxGeometry x="301" y="2029" width="90" height="40" as="geometry" />
        </mxCell>
        <mxCell id="uwPRUye7MMwisOPvKxMe-66" style="edgeStyle=orthogonalEdgeStyle;rounded=0;orthogonalLoop=1;jettySize=auto;html=1;exitX=1;exitY=0.5;exitDx=0;exitDy=0;entryX=0;entryY=0.5;entryDx=0;entryDy=0;sketch=1;shadow=1;fontFamily=Comic Sans MS;" edge="1" parent="1" source="uwPRUye7MMwisOPvKxMe-67" target="uwPRUye7MMwisOPvKxMe-71">
          <mxGeometry relative="1" as="geometry" />
        </mxCell>
        <mxCell id="uwPRUye7MMwisOPvKxMe-67" value="P1" style="rounded=0;whiteSpace=wrap;html=1;sketch=1;shadow=1;fontFamily=Comic Sans MS;" vertex="1" parent="1">
          <mxGeometry x="301" y="2109" width="90" height="40" as="geometry" />
        </mxCell>
        <mxCell id="uwPRUye7MMwisOPvKxMe-68" style="edgeStyle=orthogonalEdgeStyle;rounded=0;orthogonalLoop=1;jettySize=auto;html=1;exitX=1;exitY=0.5;exitDx=0;exitDy=0;entryX=0;entryY=0.5;entryDx=0;entryDy=0;sketch=1;shadow=1;fontFamily=Comic Sans MS;" edge="1" parent="1" source="uwPRUye7MMwisOPvKxMe-69" target="uwPRUye7MMwisOPvKxMe-72">
          <mxGeometry relative="1" as="geometry" />
        </mxCell>
        <mxCell id="uwPRUye7MMwisOPvKxMe-69" value="P9" style="rounded=0;whiteSpace=wrap;html=1;sketch=1;shadow=1;fontFamily=Comic Sans MS;" vertex="1" parent="1">
          <mxGeometry x="301" y="2229" width="90" height="40" as="geometry" />
        </mxCell>
        <mxCell id="uwPRUye7MMwisOPvKxMe-70" value="" style="rounded=0;whiteSpace=wrap;html=1;sketch=1;shadow=1;fontFamily=Comic Sans MS;fillColor=#f8cecc;strokeColor=#b85450;" vertex="1" parent="1">
          <mxGeometry x="501" y="2029" width="380" height="40" as="geometry" />
        </mxCell>
        <mxCell id="uwPRUye7MMwisOPvKxMe-71" value="" style="rounded=0;whiteSpace=wrap;html=1;sketch=1;shadow=1;fontFamily=Comic Sans MS;" vertex="1" parent="1">
          <mxGeometry x="501" y="2109" width="380" height="40" as="geometry" />
        </mxCell>
        <mxCell id="uwPRUye7MMwisOPvKxMe-72" value="" style="rounded=0;whiteSpace=wrap;html=1;sketch=1;shadow=1;fontFamily=Comic Sans MS;" vertex="1" parent="1">
          <mxGeometry x="501" y="2229" width="380" height="40" as="geometry" />
        </mxCell>
        <mxCell id="uwPRUye7MMwisOPvKxMe-73" value="Msg1" style="rounded=0;whiteSpace=wrap;html=1;sketch=1;shadow=1;fontFamily=Comic Sans MS;" vertex="1" parent="1">
          <mxGeometry x="511" y="2236.5" width="50" height="25" as="geometry" />
        </mxCell>
        <mxCell id="uwPRUye7MMwisOPvKxMe-74" value="Msg2" style="rounded=0;whiteSpace=wrap;html=1;sketch=1;shadow=1;fontFamily=Comic Sans MS;" vertex="1" parent="1">
          <mxGeometry x="581" y="2236.5" width="50" height="25" as="geometry" />
        </mxCell>
        <mxCell id="uwPRUye7MMwisOPvKxMe-75" value="Msg3" style="rounded=0;whiteSpace=wrap;html=1;sketch=1;shadow=1;fontFamily=Comic Sans MS;" vertex="1" parent="1">
          <mxGeometry x="651" y="2236.5" width="50" height="25" as="geometry" />
        </mxCell>
        <mxCell id="uwPRUye7MMwisOPvKxMe-76" value="..." style="text;html=1;strokeColor=none;fillColor=none;align=center;verticalAlign=middle;whiteSpace=wrap;rounded=0;shadow=1;dashed=1;fontFamily=Comic Sans MS;fontSize=16;horizontal=0;" vertex="1" parent="1">
          <mxGeometry x="301" y="2179" width="60" height="30" as="geometry" />
        </mxCell>
        <mxCell id="uwPRUye7MMwisOPvKxMe-77" value="Msg1" style="rounded=0;whiteSpace=wrap;html=1;sketch=1;shadow=1;fontFamily=Comic Sans MS;" vertex="1" parent="1">
          <mxGeometry x="578" y="2037" width="50" height="25" as="geometry" />
        </mxCell>
        <mxCell id="uwPRUye7MMwisOPvKxMe-78" value="Msg2" style="rounded=0;whiteSpace=wrap;html=1;sketch=1;shadow=1;fontFamily=Comic Sans MS;" vertex="1" parent="1">
          <mxGeometry x="514" y="2037" width="50" height="25" as="geometry" />
        </mxCell>
        <mxCell id="uwPRUye7MMwisOPvKxMe-79" value="Msg3" style="rounded=0;whiteSpace=wrap;html=1;sketch=1;shadow=1;fontFamily=Comic Sans MS;" vertex="1" parent="1">
          <mxGeometry x="645" y="2038" width="50" height="25" as="geometry" />
        </mxCell>
        <mxCell id="uwPRUye7MMwisOPvKxMe-80" value="Msg100" style="rounded=0;whiteSpace=wrap;html=1;sketch=1;shadow=1;fontFamily=Comic Sans MS;" vertex="1" parent="1">
          <mxGeometry x="818" y="2037" width="50" height="25" as="geometry" />
        </mxCell>
        <mxCell id="uwPRUye7MMwisOPvKxMe-82" value="..." style="text;html=1;strokeColor=none;fillColor=none;align=center;verticalAlign=middle;whiteSpace=wrap;rounded=0;shadow=1;dashed=1;fontFamily=Comic Sans MS;fontSize=18;" vertex="1" parent="1">
          <mxGeometry x="724" y="2033" width="60" height="30" as="geometry" />
        </mxCell>
        <mxCell id="uwPRUye7MMwisOPvKxMe-83" value="Compare timestamp" style="text;html=1;strokeColor=none;fillColor=none;align=center;verticalAlign=middle;whiteSpace=wrap;rounded=0;shadow=1;dashed=1;fontFamily=Comic Sans MS;fontSize=16;" vertex="1" parent="1">
          <mxGeometry x="484" y="1379" width="182" height="30" as="geometry" />
        </mxCell>
        <mxCell id="uwPRUye7MMwisOPvKxMe-84" value="Sorting Queue" style="text;html=1;strokeColor=none;fillColor=none;align=center;verticalAlign=middle;whiteSpace=wrap;rounded=0;shadow=1;dashed=1;fontFamily=Comic Sans MS;fontSize=18;" vertex="1" parent="1">
          <mxGeometry x="948" y="1375" width="143" height="30" as="geometry" />
        </mxCell>
        <mxCell id="uwPRUye7MMwisOPvKxMe-85" value="No Need Sorting" style="text;html=1;strokeColor=none;fillColor=none;align=center;verticalAlign=middle;whiteSpace=wrap;rounded=0;shadow=1;dashed=1;fontFamily=Comic Sans MS;fontSize=18;" vertex="1" parent="1">
          <mxGeometry x="944" y="1450" width="170" height="30" as="geometry" />
        </mxCell>
      </root>
    </mxGraphModel>
  </diagram>
</mxfile>
